# xmcd CD database file
#
# Track frame offsets:
#	150
#	27653
#	56673
#	83755
#	104909
#	141519
#
# Disc length: 2178 seconds
#
# Revision: 0
# Processed by: cddbd v1.5.1PL0 Copyright (c) Steve Scherf et al.
# Submitted via: CDex 1.51
#
DISCID=59088006
DTITLE=Ron Taylor - Unsung Heroes
DYEAR=1900
DGENRE=Jazz
TTITLE0=Unsung Heroes
TTITLE1=There'll Never Be Another You
TTITLE2=Once Is Not Enough
TTITLE3=Something Old Something New
TTITLE4=For Heather
TTITLE5=Moonlight In Vermont
EXTD=
EXTT0=
EXTT1=
EXTT2=
EXTT3=
EXTT4=
EXTT5=
PLAYORDER=
